# ProBuilder 6.0.4
# https://unity3d.com/unity/features/worldbuilding/probuilder
# 2025-05-14 오전 11:45:55

mtllib ./MapRange2.mtl
o MapRange2

g MapRange2
v -3.230578E-06 238.2667 -4.540905E-07
v 30.1404 238.2667 -8.047058
v 72.73494 238.2667 -23.08154
v 98.04311 238.2667 -34.92792
v 119.4474 238.2667 -47.98586
v 139.7747 238.2667 -64.67849
v 150.8134 238.2667 -76.12103
v 161.8521 238.2667 -90.79437
v 171.2753 238.2667 -107.2178
v 180.4294 238.2667 -129.8336
v 186.7563 238.2667 -156.8918
v 189.8525 238.2667 -182.6038
v 192.1408 238.2667 -206.0273
v 196.8525 238.2667 -228.2392
v 205.1985 238.2667 -252.4703
v 216.2372 238.2667 -272.2592
v 225.9293 238.2667 -285.4517
v 239.1218 238.2667 -298.7789
v 258.9107 238.2667 -313.0484
v 283.1418 238.2667 -324.0871
v 300.9113 238.2667 -329.4718
v 323.7964 238.2667 -334.1834
v 349.3738 238.2667 -336.0681
v 382.4898 238.2667 -335.395
v 420.5866 238.2667 -331.3565
v 460.2989 238.2667 -324.2217
v 477.9873 238.2667 -71.93363
v 460.6304 238.2667 159.8472
v 459.7477 238.2667 372.8034
v 250.35 238.2667 381.4966
v 0.1520735 238.2667 373.8583
v 225.9293 0 -285.4517
v 205.1985 0 -252.4703
v 216.2372 0 -272.2592
v 192.1408 0 -206.0273
v 196.8525 0 -228.2392
v 0 0 0
v 30.1404 0 -8.047058
v 0.1520767 -1.525879E-05 373.8583
v 72.73494 0 -23.08154
v 250.35 0 381.4966
v 98.04311 0 -34.92792
v 119.4474 0 -47.98586
v 459.7477 1.525879E-05 372.8034
v 460.6304 0 159.8472
v 139.7747 0 -64.67849
v 150.8134 0 -76.12103
v 161.8521 0 -90.79437
v 171.2753 0 -107.2178
v 180.4294 0 -129.8336
v 186.7563 0 -156.8918
v 189.8525 0 -182.6038
v 283.1418 0 -324.0871
v 239.1218 0 -298.7789
v 258.9107 0 -313.0484
v 349.3738 0 -336.0681
v 300.9113 0 -329.4718
v 323.7964 0 -334.1834
v 382.4898 0 -335.395
v 420.5866 0 -331.3565
v 477.9873 0 -71.93363
v 460.2989 0 -324.2217

vt -2.911593E-12 5.651393E-12
vt -30.1404 -8.047058
vt -72.73494 -23.08154
vt -98.04311 -34.92792
vt -119.4474 -47.98586
vt -139.7747 -64.67849
vt -150.8134 -76.12103
vt -161.8521 -90.79437
vt -171.2753 -107.2178
vt -180.4294 -129.8336
vt -186.7563 -156.8918
vt -189.8525 -182.6038
vt -192.1408 -206.0273
vt -196.8525 -228.2392
vt -205.1985 -252.4703
vt -216.2372 -272.2592
vt -225.9293 -285.4517
vt -239.1218 -298.7789
vt -258.9107 -313.0484
vt -283.1418 -324.0871
vt -300.9113 -329.4718
vt -323.7964 -334.1834
vt -349.3738 -336.0681
vt -382.4898 -335.395
vt -420.5866 -331.3565
vt -460.2989 -324.2217
vt -477.9873 -71.93363
vt -460.6304 159.8472
vt -459.7477 372.8034
vt -250.35 381.4966
vt -0.1520767 373.8583
vt 225.9293 -285.4517
vt 205.1985 -252.4703
vt 216.2372 -272.2592
vt 192.1408 -206.0273
vt 196.8525 -228.2392
vt 30.1404 -8.047058
vt 0.1520767 373.8583
vt 72.73494 -23.08154
vt 250.35 381.4966
vt 98.04311 -34.92792
vt 119.4474 -47.98586
vt 459.7477 372.8034
vt 460.6304 159.8472
vt 139.7747 -64.67849
vt 150.8134 -76.12103
vt 161.8521 -90.79437
vt 171.2753 -107.2178
vt 180.4294 -129.8336
vt 186.7563 -156.8918
vt 189.8525 -182.6038
vt 283.1418 -324.0871
vt 239.1218 -298.7789
vt 258.9107 -313.0484
vt 349.3738 -336.0681
vt 300.9113 -329.4718
vt 323.7964 -334.1834
vt 382.4898 -335.395
vt 420.5866 -331.3565
vt 477.9873 -71.93363
vt 460.2989 -324.2217
vt -320.4498 0
vt -343.1093 0
vt -320.4498 238.2667
vt -343.1093 238.2667
vt -347.4374 0
vt -363.8075 0
vt -347.4374 238.2667
vt -363.8075 238.2667
vt -241.413 0
vt -264.1192 0
vt -241.413 238.2667
vt -264.1192 238.2667
vt -279.9039 0
vt -305.5321 0
vt -279.9039 238.2667
vt -305.5321 238.2667
vt -31.19614 -2.03201E-15
vt 3.004117E-06 238.2667
vt -31.19613 238.2667
vt 373.8583 -1.525879E-05
vt 373.8583 238.2667
vt -31.10028 -1.302249E-08
vt -76.27029 -1.302249E-08
vt -31.10027 238.2667
vt -76.27029 238.2667
vt 261.8748 0
vt 11.56027 -1.525879E-05
vt 261.8748 238.2667
vt 11.56027 238.2667
vt -75.66052 0
vt -103.604 0
vt -75.66052 238.2667
vt -103.604 238.2667
vt -101.8878 0
vt -126.9608 0
vt -101.8878 238.2667
vt -126.9608 238.2667
vt 443.8882 1.525879E-05
vt 234.3102 0
vt 443.8882 238.2667
vt 234.3102 238.2667
vt -157.9364 0
vt -370.8944 1.525879E-05
vt -157.9364 238.2667
vt -370.8944 238.2667
vt -122.7641 0
vt -149.067 0
vt -122.7641 238.2667
vt -149.067 238.2667
vt -143.5932 0
vt -159.4924 0
vt -143.5932 238.2667
vt -159.4924 238.2667
vt -151.4947 0
vt -169.8567 0
vt -151.4947 238.2667
vt -169.8567 238.2667
vt -159.3008 0
vt -178.2356 0
vt -159.3008 238.2667
vt -178.2356 238.2667
vt -163.6465 0
vt -188.0446 0
vt -163.6465 238.2667
vt -188.0446 238.2667
vt -167.5046 0
vt -195.2926 0
vt -167.5046 238.2667
vt -195.2926 238.2667
vt -178.0942 0
vt -203.992 0
vt -178.0942 238.2667
vt -203.992 238.2667
vt -200.1981 0
vt -223.7331 0
vt -200.1981 238.2667
vt -223.7331 238.2667
vt -368.7069 0
vt -393.104 0
vt -368.7069 238.2667
vt -393.104 238.2667
vt -365.3933 0
vt -392.0203 0
vt -365.3933 238.2667
vt -392.0203 238.2667
vt -361.1685 0
vt -384.5335 0
vt -361.1685 238.2667
vt -384.5335 238.2667
vt -347.4786 0
vt -373.1254 0
vt -347.4786 238.2667
vt -373.1254 238.2667
vt -342.4724 0
vt -375.5952 0
vt -342.4724 238.2667
vt -375.5952 238.2667
vt -364.9615 0
vt -383.529 0
vt -364.9615 238.2667
vt -383.529 238.2667
vt -345.0023 0
vt -383.3126 0
vt -345.0023 238.2667
vt -383.3126 238.2667
vt -361.81 0
vt -380.5625 0
vt -361.81 238.2667
vt -380.5625 238.2667
vt -355.3649 0
vt -395.7131 0
vt -355.3649 238.2667
vt -395.7131 238.2667
vt 291.2344 0
vt 38.32697 0
vt 291.2344 238.2667
vt 38.32697 238.2667
vt 107.4268 0
vt -125.003 0
vt 107.4268 238.2667
vt -125.003 238.2667

vn 1.089567E-08 1 4.080994E-08
vn 0 -1 0
vn -0.873315 0 -0.4871561
vn -0.8058925 0 -0.5920619
vn -0.978234 0 -0.2075048
vn -0.9454877 0 -0.3256578
vn -0.2579505 -5.338775E-09 -0.9661582
vn -0.9999999 -1.357114E-08 0.0004067764
vn -0.3328422 -5.328869E-09 -0.9429826
vn -0.03051496 0 0.9995343
vn -0.42394 0 -0.9056903
vn -0.5207985 0 -0.8536797
vn 0.04147971 0 0.9991394
vn 0.9999914 0 0.004145191
vn -0.6346301 0 -0.7728161
vn -0.7196927 0 -0.6942927
vn -0.7991186 0 -0.6011735
vn -0.867367 0 -0.4976691
vn -0.9269468 0 -0.3751929
vn -0.9737347 0 -0.2276855
vn -0.9928275 0 -0.1195555
vn -0.9952618 0 -0.09723092
vn -0.5848852 0 -0.8111161
vn -0.414568 0 -0.9100184
vn -0.2016522 0 -0.9794572
vn -0.07348584 0 -0.9972963
vn 0.0203212 0 -0.9997935
vn -0.2900084 0 -0.9570241
vn 0.1054168 0 -0.9944282
vn -0.7106877 0 -0.7035077
vn 0.1768301 0 -0.9842414
vn 0.9975512 0 -0.06994016
vn 0.9972079 0 0.07467563

usemtl Lit_(Instance)
f 16/16/1 15/15/1 17/17/1
f 14/14/1 13/13/1 15/15/1
f 31/31/1 2/2/1 1/1/1
f 31/31/1 3/3/1 2/2/1
f 31/31/1 30/30/1 3/3/1
f 30/30/1 4/4/1 3/3/1
f 30/30/1 5/5/1 4/4/1
f 28/28/1 30/30/1 29/29/1
f 5/5/1 30/30/1 28/28/1
f 5/5/1 28/28/1 6/6/1
f 6/6/1 28/28/1 7/7/1
f 7/7/1 28/28/1 8/8/1
f 8/8/1 28/28/1 9/9/1
f 9/9/1 28/28/1 10/10/1
f 10/10/1 28/28/1 11/11/1
f 11/11/1 28/28/1 12/12/1
f 12/12/1 28/28/1 13/13/1
f 15/15/1 13/13/1 28/28/1
f 17/17/1 15/15/1 28/28/1
f 19/19/1 18/18/1 20/20/1
f 22/22/1 21/21/1 23/23/1
f 21/21/1 24/24/1 23/23/1
f 21/21/1 20/20/1 24/24/1
f 24/24/1 20/20/1 25/25/1
f 20/20/1 18/18/1 25/25/1
f 18/18/1 17/17/1 25/25/1
f 17/17/1 28/28/1 25/25/1
f 26/26/1 25/25/1 27/27/1
f 25/25/1 28/28/1 27/27/1
f 61/60/2 45/44/2 60/59/2
f 61/60/2 60/59/2 62/61/2
f 60/59/2 45/44/2 32/32/2
f 60/59/2 32/32/2 54/53/2
f 60/59/2 54/53/2 53/52/2
f 60/59/2 53/52/2 59/58/2
f 59/58/2 53/52/2 57/56/2
f 56/55/2 59/58/2 57/56/2
f 56/55/2 57/56/2 58/57/2
f 53/52/2 54/53/2 55/54/2
f 45/44/2 33/33/2 32/32/2
f 45/44/2 35/35/2 33/33/2
f 35/35/2 45/44/2 52/51/2
f 52/51/2 45/44/2 51/50/2
f 51/50/2 45/44/2 50/49/2
f 50/49/2 45/44/2 49/48/2
f 49/48/2 45/44/2 48/47/2
f 48/47/2 45/44/2 47/46/2
f 47/46/2 45/44/2 46/45/2
f 46/45/2 45/44/2 43/42/2
f 45/44/2 41/40/2 43/42/2
f 44/43/2 41/40/2 45/44/2
f 42/41/2 43/42/2 41/40/2
f 40/39/2 42/41/2 41/40/2
f 40/39/2 41/40/2 39/38/2
f 38/37/2 40/39/2 39/38/2
f 37/1/2 38/37/2 39/38/2
f 33/33/2 35/35/2 36/36/2
f 32/32/2 33/33/2 34/34/2
f 16/65/3 34/63/3 33/62/3
f 33/62/3 15/64/3 16/65/3
f 17/69/4 32/67/4 34/66/4
f 34/66/4 16/68/4 17/69/4
f 14/73/5 36/71/5 35/70/5
f 35/70/5 13/72/5 14/73/5
f 15/77/6 33/75/6 36/74/6
f 36/74/6 14/76/6 15/77/6
f 2/80/7 38/78/7 37/1/7
f 37/1/7 1/79/7 2/80/7
f 1/79/8 37/1/8 39/81/8
f 39/81/8 31/82/8 1/79/8
f 3/86/9 40/84/9 38/83/9
f 38/83/9 2/85/9 3/86/9
f 31/90/10 39/88/10 41/87/10
f 41/87/10 30/89/10 31/90/10
f 4/94/11 42/92/11 40/91/11
f 40/91/11 3/93/11 4/94/11
f 5/98/12 43/96/12 42/95/12
f 42/95/12 4/97/12 5/98/12
f 30/102/13 41/100/13 44/99/13
f 44/99/13 29/101/13 30/102/13
f 29/106/14 44/104/14 45/103/14
f 45/103/14 28/105/14 29/106/14
f 6/110/15 46/108/15 43/107/15
f 43/107/15 5/109/15 6/110/15
f 7/114/16 47/112/16 46/111/16
f 46/111/16 6/113/16 7/114/16
f 8/118/17 48/116/17 47/115/17
f 47/115/17 7/117/17 8/118/17
f 9/122/18 49/120/18 48/119/18
f 48/119/18 8/121/18 9/122/18
f 10/126/19 50/124/19 49/123/19
f 49/123/19 9/125/19 10/126/19
f 11/130/20 51/128/20 50/127/20
f 50/127/20 10/129/20 11/130/20
f 12/134/21 52/132/21 51/131/21
f 51/131/21 11/133/21 12/134/21
f 13/138/22 35/136/22 52/135/22
f 52/135/22 12/137/22 13/138/22
f 19/142/23 55/140/23 54/139/23
f 54/139/23 18/141/23 19/142/23
f 20/146/24 53/144/24 55/143/24
f 55/143/24 19/145/24 20/146/24
f 22/150/25 58/148/25 57/147/25
f 57/147/25 21/149/25 22/150/25
f 23/154/26 56/152/26 58/151/26
f 58/151/26 22/153/26 23/154/26
f 24/158/27 59/156/27 56/155/27
f 56/155/27 23/157/27 24/158/27
f 21/162/28 57/160/28 53/159/28
f 53/159/28 20/161/28 21/162/28
f 25/166/29 60/164/29 59/163/29
f 59/163/29 24/165/29 25/166/29
f 18/170/30 54/168/30 32/167/30
f 32/167/30 17/169/30 18/170/30
f 26/174/31 62/172/31 60/171/31
f 60/171/31 25/173/31 26/174/31
f 27/178/32 61/176/32 62/175/32
f 62/175/32 26/177/32 27/178/32
f 28/182/33 45/180/33 61/179/33
f 61/179/33 27/181/33 28/182/33

