# ProBuilder 6.0.4
# https://unity3d.com/unity/features/worldbuilding/probuilder
# 2025-05-14 오전 11:49:07

mtllib ./MapRange5.mtl
o MapRange5

g MapRange5
v -240.6892 142.6445 -38.94041
v -27.70682 142.6445 168.4762
v -12.31468 142.6445 -121.3912
v 12.51008 142.6445 -357.7886
v -190.7375 142.6445 -413.1638
v -388.402 142.6445 -464.2357
v -489.7851 142.6445 -400.835
v -584.9572 142.6446 -320.7192
v -588.2841 142.6446 -128.5476
v -589.2182 142.6445 -11.40259
v -588.761 142.6447 101.0839
v -587.037 142.6446 315.745
v -450.6349 142.6445 314.92
v -338.2933 142.6446 314.6441
v -162.1064 142.6445 319.5869
v -50.41021 142.6446 313.6651
v 1.25819E-05 142.6445 -6.318131E-06
v -12.3147 -3.051758E-05 -121.3912
v -27.70683 0 168.4762
v -240.6892 0 -38.9404
v 12.51007 0 -357.7886
v 0 0 0
v -50.41022 6.103516E-05 313.6651
v -162.1064 0 319.5869
v -338.2933 6.103516E-05 314.6441
v -588.761 0.0001220703 101.0839
v -450.6349 0 314.92
v -587.037 6.103516E-05 315.745
v -589.2182 0 -11.40259
v -588.2841 6.103516E-05 -128.5476
v -584.9572 6.103516E-05 -320.7192
v -489.7851 0 -400.835
v -388.402 0 -464.2357
v -190.7375 0 -413.1638

vt 240.6892 -38.9404
vt 27.70683 168.4762
vt 12.3147 -121.3912
vt -12.51007 -357.7886
vt 190.7375 -413.1638
vt 388.402 -464.2357
vt 489.7851 -400.835
vt 584.9572 -320.7192
vt 588.2841 -128.5476
vt 589.2182 -11.40259
vt 588.761 101.0839
vt 587.037 315.745
vt 450.6349 314.92
vt 338.2933 314.6441
vt 162.1064 319.5869
vt 50.41022 313.6651
vt -2.990663E-13 -1.614125E-13
vt -12.3147 -121.3912
vt -27.70683 168.4762
vt -240.6892 -38.9404
vt 12.51007 -357.7886
vt -50.41022 313.6651
vt -162.1064 319.5869
vt -338.2933 314.6441
vt -588.761 101.0839
vt -450.6349 314.92
vt -587.037 315.745
vt -589.2182 -11.40259
vt -588.2841 -128.5476
vt -584.9572 -320.7192
vt -489.7851 -400.835
vt -388.402 -464.2357
vt -190.7375 -413.1638
vt 358.0073 4.678454E-15
vt 358.0073 142.6445
vt 6.753929E-06 142.6445
vt -317.6901 6.103516E-05
vt -317.69 142.6446
vt -66.946 6.235426E-05
vt -178.799 1.319101E-06
vt -66.94598 142.6446
vt -178.799 142.6445
vt -153.0803 -9.719679E-07
vt -329.3365 6.006319E-05
vt -153.0803 142.6445
vt -329.3365 142.6446
vt -452.5313 0
vt -588.936 6.103516E-05
vt -452.5313 142.6445
vt -588.936 142.6446
vt 311.0204 6.103516E-05
vt 96.35249 0.0001220703
vt 311.0204 142.6446
vt 96.35249 142.6447
vt -339.0649 6.103516E-05
vt -451.407 0
vt -339.0649 142.6446
vt -451.407 142.6445
vt 98.69002 0.0001219422
vt -13.79742 -1.280823E-07
vt 98.69001 142.6447
vt -13.79743 142.6445
vt -6.703805 2.199116E-07
vt -123.8526 6.125506E-05
vt -6.703812 142.6445
vt -123.8526 142.6446
vt 240.9649 6.103516E-05
vt 116.5613 0
vt 240.9649 142.6446
vt 116.5613 142.6445
vt -118.3454 6.103516E-05
vt -310.5458 6.103516E-05
vt -118.3454 142.6446
vt -310.5458 142.6446
vt 492.1862 0
vt 288.0305 0
vt 492.1862 142.6445
vt 288.0305 142.6445
vt 202.7407 0
vt 83.16564 0
vt 202.7407 142.6445
vt 83.16564 142.6445
vt 292.638 9.799452E-06
vt 81.98184 9.799451E-06
vt 292.638 142.6445
vt 81.98183 142.6445

vn 1.190884E-07 1 -1.05942E-07
vn 5.169422E-07 -1 3.515694E-08
vn 0.9993893 -8.686064E-08 0.03494362
vn 0.9873305 -8.005876E-08 0.1586774
vn 0.05294335 -4.247542E-09 0.9985975
vn -0.0280435 2.999833E-09 0.9996067
vn 0.006048049 0 0.9999817
vn -0.9999678 0 0.008030718
vn 0.002455706 0 0.999997
vn -0.9999917 2.173956E-10 0.004064581
vn -0.9999682 -3.731803E-10 -0.007973991
vn -0.6439989 0 -0.7650265
vn -0.9998502 0 -0.01730956
vn 0.2501613 0 -0.9682041
vn -0.5302169 0 -0.847862
vn 0.2628701 -2.811941E-08 -0.9648312

usemtl ProBuilderDefault_(Instance)
f 1/1/1 2/2/1 3/3/1
f 17/17/1 4/4/1 3/3/1
f 2/2/1 17/17/1 3/3/1
f 17/17/1 2/2/1 16/16/1
f 2/2/1 15/15/1 16/16/1
f 1/1/1 15/15/1 2/2/1
f 1/1/1 14/14/1 15/15/1
f 12/12/1 13/13/1 11/11/1
f 13/13/1 14/14/1 11/11/1
f 14/14/1 1/1/1 11/11/1
f 11/11/1 1/1/1 10/10/1
f 1/1/1 9/9/1 10/10/1
f 9/9/1 7/7/1 8/8/1
f 9/9/1 1/1/1 7/7/1
f 7/7/1 5/5/1 6/6/1
f 7/7/1 1/1/1 5/5/1
f 3/3/1 5/5/1 1/1/1
f 3/3/1 4/4/1 5/5/1
f 34/33/2 21/21/2 18/18/2
f 20/20/2 34/33/2 18/18/2
f 34/33/2 20/20/2 32/31/2
f 33/32/2 34/33/2 32/31/2
f 32/31/2 20/20/2 30/29/2
f 31/30/2 32/31/2 30/29/2
f 29/28/2 30/29/2 20/20/2
f 29/28/2 20/20/2 26/25/2
f 26/25/2 20/20/2 25/24/2
f 26/25/2 25/24/2 27/26/2
f 26/25/2 27/26/2 28/27/2
f 24/23/2 25/24/2 20/20/2
f 19/19/2 24/23/2 20/20/2
f 23/22/2 24/23/2 19/19/2
f 23/22/2 19/19/2 22/17/2
f 18/18/2 22/17/2 19/19/2
f 18/18/2 21/21/2 22/17/2
f 18/18/2 19/19/2 20/20/2
f 17/36/3 22/17/3 21/34/3
f 21/34/3 4/35/3 17/36/3
f 16/38/4 23/37/4 22/17/4
f 22/17/4 17/36/4 16/38/4
f 15/42/5 24/40/5 23/39/5
f 23/39/5 16/41/5 15/42/5
f 14/46/6 25/44/6 24/43/6
f 24/43/6 15/45/6 14/46/6
f 12/50/7 28/48/7 27/47/7
f 27/47/7 13/49/7 12/50/7
f 11/54/8 26/52/8 28/51/8
f 28/51/8 12/53/8 11/54/8
f 13/58/9 27/56/9 25/55/9
f 25/55/9 14/57/9 13/58/9
f 10/62/10 29/60/10 26/59/10
f 26/59/10 11/61/10 10/62/10
f 9/66/11 30/64/11 29/63/11
f 29/63/11 10/65/11 9/66/11
f 7/70/12 32/68/12 31/67/12
f 31/67/12 8/69/12 7/70/12
f 8/74/13 31/72/13 30/71/13
f 30/71/13 9/73/13 8/74/13
f 5/78/14 34/76/14 33/75/14
f 33/75/14 6/77/14 5/78/14
f 6/82/15 33/80/15 32/79/15
f 32/79/15 7/81/15 6/82/15
f 4/86/16 21/84/16 34/83/16
f 34/83/16 5/85/16 4/86/16

