# ProBuilder 6.0.4
# https://unity3d.com/unity/features/worldbuilding/probuilder
# 2025-05-14 오전 11:48:20

mtllib ./MapRange4.mtl
o MapRange4

g MapRange4
v -3.422618E-06 154.0557 3.243912E-06
v -24.94244 154.0557 16.24337
v -44.57305 154.0557 25.09641
v -66.97505 154.0557 31.56297
v -87.60645 154.0557 34.33435
v -121.9408 154.0557 32.79472
v -144.0348 154.0557 27.86781
v -166.8987 154.0557 19.55368
v -186.2214 154.0557 10.16178
v -206.6217 154.0557 -3.310225
v -223.1731 154.0557 -17.93699
v -236.876 154.0557 -34.02641
v -243.9584 154.0557 -46.72859
v -252.9654 154.0557 -70.51629
v -260.2788 154.0557 -84.37313
v -271.7493 154.0557 -100.0006
v -284.6054 154.0557 -111.317
v -297.8465 154.0557 -118.7843
v -316.6302 154.0557 -124.0961
v -341.5728 154.0557 -124.6349
v -363.6669 154.0557 -120.5548
v -391.9196 154.0557 -110.624
v -417.1021 154.0557 -98.54887
v -454.0545 154.0557 -76.24016
v -490.4347 154.0557 -49.8129
v -525.5567 154.0557 -20.86875
v -557.3245 154.0557 7.200536
v -560.08 154.0558 -423.3449
v -438.5424 154.0557 -421.4596
v -274.6723 154.0557 -421.9506
v -53.27084 154.0558 -422.2738
v 24.6361 154.0557 -296.2053
v 106.4675 154.0558 -161.7006
v -53.27084 2.993716E-05 -422.2738
v 24.6361 2.684269E-07 -296.2053
v -274.6723 -3.351032E-05 -421.9506
v -560.08 2.441513E-05 -423.3449
v -525.5567 -5.726294E-06 -20.86875
v -557.3245 -6.072425E-06 7.200532
v -490.4347 -5.343616E-06 -49.81291
v -454.0545 -4.947229E-06 -76.24016
v -417.1021 -4.544608E-06 -98.54887
v -438.5424 -4.778215E-06 -421.4596
v -391.9196 -4.270228E-06 -110.624
v -363.6669 -3.962396E-06 -120.5548
v -341.5728 -3.721666E-06 -124.6349
v -316.6302 -3.4499E-06 -124.0961
v -297.8465 -3.245238E-06 -118.7843
v -284.6054 -3.100967E-06 -111.317
v -271.7493 -2.960891E-06 -100.0006
v -260.2788 -2.835913E-06 -84.37313
v -252.9654 -2.756228E-06 -70.51629
v -66.97505 -7.297382E-07 31.56297
v -87.60645 -9.545312E-07 34.33435
v -44.57304 -4.856533E-07 25.09641
v -121.9408 -1.328627E-06 32.79471
v -24.94243 -2.717646E-07 16.24337
v -144.0348 -1.569356E-06 27.8678
v 0 0 0
v -166.8987 -1.818474E-06 19.55367
v -223.1731 -2.431621E-06 -17.937
v -236.876 -2.580923E-06 -34.02642
v -243.9584 -2.658091E-06 -46.7286
v -206.6217 -2.251283E-06 -3.310229
v -186.2214 -2.029007E-06 10.16178
v 106.4675 3.167761E-05 -161.7006

vt 1.678533E-06 -7.4461E-12
vt 24.94244 16.24337
vt 44.57305 25.09641
vt 66.97505 31.56297
vt 87.60645 34.33435
vt 121.9408 32.79471
vt 144.0348 27.8678
vt 166.8987 19.55367
vt 186.2214 10.16178
vt 206.6217 -3.310229
vt 223.1731 -17.937
vt 236.876 -34.02642
vt 243.9584 -46.7286
vt 252.9654 -70.51629
vt 260.2788 -84.37313
vt 271.7493 -100.0006
vt 284.6054 -111.317
vt 297.8465 -118.7843
vt 316.6302 -124.0961
vt 341.5728 -124.6349
vt 363.6669 -120.5548
vt 391.9196 -110.624
vt 417.1021 -98.54887
vt 454.0545 -76.24016
vt 490.4347 -49.81291
vt 525.5567 -20.86875
vt 557.3245 7.200532
vt 560.08 -423.3449
vt 438.5424 -421.4596
vt 274.6723 -421.9506
vt 53.27084 -422.2738
vt -24.6361 -296.2053
vt -106.4675 -161.7006
vt -53.27084 -422.2738
vt 24.6361 -296.2053
vt -274.6723 -421.9506
vt -560.08 -423.3449
vt -525.5567 -20.86875
vt -557.3245 7.200532
vt -490.4347 -49.81291
vt -454.0545 -76.24016
vt -417.1021 -98.54887
vt -438.5424 -421.4596
vt -391.9196 -110.624
vt -363.6669 -120.5548
vt -341.5728 -124.6349
vt -316.6302 -124.0961
vt -297.8465 -118.7843
vt -284.6054 -111.317
vt -271.7493 -100.0006
vt -260.2788 -84.37313
vt -252.9654 -70.51629
vt -66.97505 31.56297
vt -87.60645 34.33435
vt -44.57304 25.09641
vt -121.9408 32.79471
vt -24.94243 16.24337
vt -144.0348 27.8678
vt -166.8987 19.55367
vt -223.1731 -17.937
vt -236.876 -34.02642
vt -243.9584 -46.7286
vt -206.6217 -3.310229
vt -186.2214 10.16178
vt 106.4675 -161.7006
vt 387.2215 2.621573E-05
vt 239.0231 -3.452999E-06
vt 387.2215 154.0558
vt 239.0231 154.0557
vt 274.0561 -3.351032E-05
vt 52.65439 2.993716E-05
vt 274.0561 154.0557
vt 52.6544 154.0558
vt -380.025 -1.247382E-05
vt -422.4169 -1.281995E-05
vt -380.025 154.0557
vt -422.4169 154.0557
vt 3.633499 -5.995138E-06
vt -426.9208 2.449242E-05
vt 3.633503 154.0557
vt -426.9208 154.0558
vt -346.7952 -1.203833E-05
vt -392.307 -1.242101E-05
vt -346.7952 154.0557
vt -392.307 154.0557
vt -322.5516 -4.947229E-06
vt -367.5173 -5.343616E-06
vt -322.5516 154.0557
vt -367.5173 154.0557
vt -306.1425 -4.544608E-06
vt -349.3068 -4.947229E-06
vt -306.1425 154.0557
vt -349.3068 154.0557
vt 566.5789 2.441513E-05
vt 445.0266 -4.778215E-06
vt 566.5789 154.0558
vt 445.0266 154.0557
vt -305.5623 -4.270228E-06
vt -333.4902 -4.544608E-06
vt -305.5623 154.0557
vt -333.4902 154.0557
vt -303.1123 -3.962396E-06
vt -333.0595 -4.270228E-06
vt -303.1123 154.0557
vt -333.0595 154.0557
vt -313.26 -3.721666E-06
vt -335.7277 -3.962396E-06
vt -313.26 154.0557
vt -335.7277 154.0557
vt 437.2776 -4.778215E-06
vt 273.4068 -3.351032E-05
vt 437.2776 154.0557
vt 273.4068 154.0557
vt -319.2363 -3.4499E-06
vt -344.1846 -3.721666E-06
vt -319.2363 154.0557
vt -344.1846 154.0557
vt -318.9302 -3.245238E-06
vt -338.4506 -3.4499E-06
vt -318.9302 154.0557
vt -338.4506 154.0557
vt -302.5824 -3.100967E-06
vt -317.784 -3.245238E-06
vt -302.5824 154.0557
vt -317.784 154.0557
vt -270.0557 -2.960891E-06
vt -287.1829 -3.100967E-06
vt -270.0557 154.0557
vt -287.1829 154.0557
vt -222.0267 -2.835913E-06
vt -241.4121 -2.960891E-06
vt -222.0267 154.0557
vt -241.4121 154.0557
vt -180.4382 -2.756228E-06
vt -196.1066 -2.835913E-06
vt -180.4382 154.0557
vt -196.1066 154.0557
vt -70.58092 -1.808597E-07
vt -91.39761 -4.056526E-07
vt -70.58092 154.0557
vt -91.39761 154.0557
vt -49.78472 -2.868029E-07
vt -73.10138 -5.308879E-07
vt -49.78473 154.0557
vt -73.10138 154.0557
vt -85.98041 -8.975952E-09
vt -120.3492 -3.830714E-07
vt -85.98041 154.0557
vt -120.3492 154.0557
vt -29.41497 -2.153381E-07
vt -50.94953 -4.292268E-07
vt -29.41498 154.0557
vt -50.94953 154.0557
vt -111.8796 8.639675E-08
vt -134.5164 -1.54333E-07
vt -111.8796 154.0557
vt -134.5164 154.0557
vt -29.76529 -2.717646E-07
vt -4.638306E-06 154.0557
vt -29.76529 154.0557
vt -125.8394 1.855737E-07
vt -150.168 -6.354374E-08
vt -125.8394 154.0557
vt -150.168 154.0557
vt -158.3583 1.095045E-07
vt -179.4921 -3.979813E-08
vt -158.3583 154.0557
vt -179.4921 154.0557
vt -145.0751 -2.859176E-07
vt -159.6184 -3.630852E-07
vt -145.0751 154.0557
vt -159.6184 154.0557
vt -130.0881 -8.026778E-07
vt -155.5239 -9.008151E-07
vt -130.0881 154.0557
vt -155.5239 154.0557
vt -157.0197 -7.015504E-08
vt -179.1079 -2.504931E-07
vt -157.0197 154.0557
vt -179.1079 154.0557
vt -149.795 -3.072856E-07
vt -174.2423 -5.295609E-07
vt -149.795 154.0557
vt -174.2423 154.0557
vt -141.5587 1.980369E-07
vt -163.043 -1.249682E-08
vt -141.5587 154.0557
vt -163.043 154.0557
vt 240.2476 -3.433621E-06
vt 82.80596 2.797557E-05
vt 240.2476 154.0557
vt 82.80596 154.0558
vt 193.6038 3.167761E-05
vt 193.6038 154.0558

vn -6.561619E-08 1 -5.457457E-09
vn 2.859706E-07 -1 -4.120601E-07
vn 0.850674 2.106422E-08 -0.5256935
vn -0.001459705 0 -0.999999
vn 0.6621374 -1.855606E-08 0.7493824
vn -0.9999795 -1.386664E-10 0.006400016
vn 0.6359711 -1.9109E-08 0.771713
vn 0.5877197 0 0.8090646
vn 0.5168318 0 0.856087
vn 0.01551033 0 -0.9998797
vn 0.4323688 0 0.9016969
vn 0.3316098 0 0.9434166
vn 0.1815979 0 0.9833729
vn -0.002996245 0 -0.9999955
vn -0.02159488 0 0.9997668
vn -0.2721161 0 0.9622644
vn -0.4912222 0 0.8710343
vn -0.6607237 0 0.7506291
vn -0.806152 0 0.5917085
vn -0.8843826 0 0.4667627
vn 0.1331326 -2.454138E-08 0.9910982
vn 0.2773364 -1.692312E-08 0.9607729
vn -0.04479743 -2.473694E-08 0.9989961
vn 0.4111085 -1.239273E-08 0.9115864
vn -0.217651 -2.416818E-08 0.9760267
vn 0.5457153 -5.520916E-09 0.8379707
vn -0.3417426 -2.327098E-08 0.9397936
vn -0.7613104 -1.605525E-08 0.6483877
vn -0.8734076 -1.205875E-08 0.4869899
vn -0.935205 -8.768319E-09 0.3541067
vn -0.6621978 -1.623539E-08 0.7493291
vn -0.5510645 -1.54971E-08 0.8344627
vn -0.437152 -2.227046E-08 0.8993877
vn 0.8543143 2.115436E-08 -0.5197568
vn 0.8352143 0 0.5499246

usemtl SimpleLit_(Instance)
f 30/30/1 32/32/1 31/31/1
f 27/27/1 26/26/1 28/28/1
f 26/26/1 25/25/1 28/28/1
f 25/25/1 24/24/1 28/28/1
f 24/24/1 23/23/1 28/28/1
f 28/28/1 23/23/1 29/29/1
f 23/23/1 22/22/1 29/29/1
f 22/22/1 21/21/1 29/29/1
f 21/21/1 20/20/1 29/29/1
f 20/20/1 30/30/1 29/29/1
f 19/19/1 30/30/1 20/20/1
f 18/18/1 30/30/1 19/19/1
f 17/17/1 30/30/1 18/18/1
f 32/32/1 30/30/1 17/17/1
f 16/16/1 32/32/1 17/17/1
f 16/16/1 15/15/1 32/32/1
f 15/15/1 14/14/1 32/32/1
f 3/3/1 5/5/1 4/4/1
f 6/6/1 5/5/1 3/3/1
f 2/2/1 6/6/1 3/3/1
f 2/2/1 7/7/1 6/6/1
f 1/1/1 7/7/1 2/2/1
f 1/1/1 8/8/1 7/7/1
f 13/13/1 12/12/1 11/11/1
f 14/14/1 13/13/1 11/11/1
f 11/11/1 10/10/1 14/14/1
f 10/10/1 9/9/1 14/14/1
f 14/14/1 9/9/1 8/8/1
f 1/1/1 14/14/1 8/8/1
f 32/32/1 14/14/1 1/1/1
f 33/33/1 32/32/1 1/1/1
f 59/1/2 35/35/2 66/65/2
f 59/1/2 52/52/2 35/35/2
f 60/59/2 52/52/2 59/1/2
f 60/59/2 65/64/2 52/52/2
f 52/52/2 65/64/2 64/63/2
f 52/52/2 64/63/2 61/60/2
f 61/60/2 63/62/2 52/52/2
f 61/60/2 62/61/2 63/62/2
f 58/58/2 60/59/2 59/1/2
f 57/57/2 58/58/2 59/1/2
f 56/56/2 58/58/2 57/57/2
f 55/55/2 56/56/2 57/57/2
f 55/55/2 54/54/2 56/56/2
f 53/53/2 54/54/2 55/55/2
f 35/35/2 52/52/2 51/51/2
f 35/35/2 51/51/2 50/50/2
f 49/49/2 35/35/2 50/50/2
f 49/49/2 36/36/2 35/35/2
f 48/48/2 36/36/2 49/49/2
f 47/47/2 36/36/2 48/48/2
f 46/46/2 36/36/2 47/47/2
f 43/43/2 36/36/2 46/46/2
f 43/43/2 46/46/2 45/45/2
f 43/43/2 45/45/2 44/44/2
f 43/43/2 44/44/2 42/42/2
f 43/43/2 42/42/2 37/37/2
f 37/37/2 42/42/2 41/41/2
f 37/37/2 41/41/2 40/40/2
f 37/37/2 40/40/2 38/38/2
f 37/37/2 38/38/2 39/39/2
f 34/34/2 35/35/2 36/36/2
f 32/69/3 35/67/3 34/66/3
f 34/66/3 31/68/3 32/69/3
f 31/73/4 34/71/4 36/70/4
f 36/70/4 30/72/4 31/73/4
f 27/77/5 39/75/5 38/74/5
f 38/74/5 26/76/5 27/77/5
f 28/81/6 37/79/6 39/78/6
f 39/78/6 27/80/6 28/81/6
f 26/85/7 38/83/7 40/82/7
f 40/82/7 25/84/7 26/85/7
f 25/89/8 40/87/8 41/86/8
f 41/86/8 24/88/8 25/89/8
f 24/93/9 41/91/9 42/90/9
f 42/90/9 23/92/9 24/93/9
f 29/97/10 43/95/10 37/94/10
f 37/94/10 28/96/10 29/97/10
f 23/101/11 42/99/11 44/98/11
f 44/98/11 22/100/11 23/101/11
f 22/105/12 44/103/12 45/102/12
f 45/102/12 21/104/12 22/105/12
f 21/109/13 45/107/13 46/106/13
f 46/106/13 20/108/13 21/109/13
f 30/113/14 36/111/14 43/110/14
f 43/110/14 29/112/14 30/113/14
f 20/117/15 46/115/15 47/114/15
f 47/114/15 19/116/15 20/117/15
f 19/121/16 47/119/16 48/118/16
f 48/118/16 18/120/16 19/121/16
f 18/125/17 48/123/17 49/122/17
f 49/122/17 17/124/17 18/125/17
f 17/129/18 49/127/18 50/126/18
f 50/126/18 16/128/18 17/129/18
f 16/133/19 50/131/19 51/130/19
f 51/130/19 15/132/19 16/133/19
f 15/137/20 51/135/20 52/134/20
f 52/134/20 14/136/20 15/137/20
f 5/141/21 54/139/21 53/138/21
f 53/138/21 4/140/21 5/141/21
f 4/145/22 53/143/22 55/142/22
f 55/142/22 3/144/22 4/145/22
f 6/149/23 56/147/23 54/146/23
f 54/146/23 5/148/23 6/149/23
f 3/153/24 55/151/24 57/150/24
f 57/150/24 2/152/24 3/153/24
f 7/157/25 58/155/25 56/154/25
f 56/154/25 6/156/25 7/157/25
f 2/160/26 57/158/26 59/1/26
f 59/1/26 1/159/26 2/160/26
f 8/164/27 60/162/27 58/161/27
f 58/161/27 7/163/27 8/164/27
f 12/168/28 62/166/28 61/165/28
f 61/165/28 11/167/28 12/168/28
f 13/172/29 63/170/29 62/169/29
f 62/169/29 12/171/29 13/172/29
f 14/176/30 52/174/30 63/173/30
f 63/173/30 13/175/30 14/176/30
f 11/180/31 61/178/31 64/177/31
f 64/177/31 10/179/31 11/180/31
f 10/184/32 64/182/32 65/181/32
f 65/181/32 9/183/32 10/184/32
f 9/188/33 65/186/33 60/185/33
f 60/185/33 8/187/33 9/188/33
f 33/192/34 66/190/34 35/189/34
f 35/189/34 32/191/34 33/192/34
f 1/159/35 59/1/35 66/193/35
f 66/193/35 33/194/35 1/159/35

